<svg width="64" height="64" viewBox="0 0 64 64" fill="none" xmlns="http://www.w3.org/2000/svg">
<circle cx="31.7739" cy="31.6782" r="31.6782" fill="url(#paint0_linear_2_102)"/>
<path d="M42.1972 19.0068H22.9344C20.7596 19.0068 19.1026 20.6639 19.1026 22.8387V42.1015C19.1026 44.2763 20.7596 45.9333 22.9344 45.9333H42.1972C44.372 45.9333 46.029 44.2763 46.029 42.1015V22.8387C46.029 20.6639 44.372 19.0068 42.1972 19.0068ZM32.5658 40.548C37.019 40.548 40.6437 37.0269 40.6437 32.7808C40.6437 32.0558 40.5402 31.2273 40.3331 30.6059H42.6114V41.5836C42.6114 42.1015 42.1972 42.6193 41.5758 42.6193H23.5558C23.038 42.6193 22.5202 42.205 22.5202 41.5836V30.5024H24.9021C24.695 31.2273 24.5914 31.9523 24.5914 32.6772C24.4879 37.0269 28.1126 40.548 32.5658 40.548ZM32.5658 37.4411C29.666 37.4411 27.3876 35.1627 27.3876 32.3665C27.3876 29.5703 29.666 27.2919 32.5658 27.2919C35.4656 27.2919 37.744 29.5703 37.744 32.3665C37.744 35.2663 35.4656 37.4411 32.5658 37.4411ZM42.5079 26.3598C42.5079 26.9812 41.9901 27.499 41.3687 27.499H38.4689C37.8475 27.499 37.3297 26.9812 37.3297 26.3598V23.5636C37.3297 22.9422 37.8475 22.4244 38.4689 22.4244H41.3687C41.9901 22.4244 42.5079 22.9422 42.5079 23.5636V26.3598Z" fill="white"/>
<defs>
<linearGradient id="paint0_linear_2_102" x1="13.5589" y1="56.2288" x2="55.5325" y2="12.6713" gradientUnits="userSpaceOnUse">
<stop stop-color="#EEA054"/>
<stop offset="0.502762" stop-color="#D64763"/>
<stop offset="1" stop-color="#B62A99"/>
</linearGradient>
</defs>
</svg>
