<svg width="64" height="64" viewBox="0 0 64 64" fill="none" xmlns="http://www.w3.org/2000/svg">
<circle cx="31.6782" cy="31.6782" r="31.6782" fill="#2F89CE"/>
<path d="M14.8106 32.2706L22.0936 34.9863L24.9327 44.1208C25.0561 44.738 25.7968 44.8615 26.2906 44.4912L30.3641 41.1583C30.7344 40.788 31.3516 40.788 31.8453 41.1583L39.1283 46.4662C39.622 46.8365 40.3627 46.5896 40.4861 45.9724L45.9175 20.0501C46.0409 19.4329 45.4237 18.8157 44.8065 19.0626L14.8106 30.6659C14.07 30.9128 14.07 32.0237 14.8106 32.2706ZM24.5624 33.6285L38.8814 24.8642C39.1283 24.7408 39.3752 25.1111 39.1283 25.2346L27.4015 36.2207C27.0312 36.591 26.6609 37.0848 26.6609 37.702L26.2906 40.6645C26.2906 41.0348 25.6733 41.1583 25.5499 40.6645L24.0686 35.2332C23.6983 34.616 23.9452 33.8753 24.5624 33.6285Z" fill="white"/>
</svg>
